<?xml version="1.0" encoding="utf-8"?>
<!-- Generator: Adobe Illustrator 24.3.0, SVG Export Plug-In . SVG Version: 6.00 Build 0)  -->
<svg version="1.1" id="Layer_1" xmlns="http://www.w3.org/2000/svg" xmlns:xlink="http://www.w3.org/1999/xlink" x="0px" y="0px"
	 width="785.7px" height="119.9px" viewBox="0 0 785.7 119.9" style="enable-background:new 0 0 785.7 119.9;" xml:space="preserve"
	>
<path d="M117.8,60.6c0,32.8-26.4,59.3-58.9,59.3S0,93.3,0,60.6S26.4,1.3,58.9,1.3S117.8,27.8,117.8,60.6 M182.4,60.6
	c0,30.8-13.2,55.8-29.5,55.8s-29.4-25-29.4-55.8S136.7,4.8,153,4.8S182.4,29.8,182.4,60.6 M208.8,60.6c0,27.6-4.6,50-10.4,50
	c-5.7,0-10.4-22.4-10.4-50s4.6-50,10.4-50S208.8,33,208.8,60.6 M371.4,6.4l0.2,0V5.1h-33.5L307,78.2L275.9,5.1h-36.1v1.3l0.2,0
	c6.1,1.4,9.2,3.4,9.2,10.9v86.9c0,7.4-3.1,9.5-9.2,10.9l-0.2,0v1.3h24.5v-1.3l-0.2,0c-6.1-1.4-9.2-3.4-9.2-10.9V22.3l40,94h2.3
	l41.1-96.6v86.6c-0.5,5.9-3.6,7.7-9.1,8.9l-0.2,0v1.3h42.7v-1.3l-0.2,0c-5.5-1.2-8.7-3.1-9.2-8.9l0-89h0
	C362.2,9.9,365.3,7.8,371.4,6.4 M390.9,64c0.7-15.6,6.3-26.9,15.7-27.1c2.9,0,5.3,1,7.2,2.8c4,3.9,5.9,12.1,5.6,24.2H390.9z
	 M390.5,68.4h50v-0.2c-0.1-11.9-3.6-21.2-10.3-27.6c-5.8-5.5-14.3-8.5-23.3-8.5h-0.2c-4.7,0-10.4,1.1-14.4,3.2
	c-4.6,2.1-8.7,5.3-12.1,9.5c-5.5,6.8-8.8,15.9-9.6,26.2c0,0.3,0,0.6-0.1,0.9c0,0.3,0,0.6,0,0.9c-0.1,1.4-0.1,2.9-0.1,4.3
	c0.5,23.3,13.1,41.9,35.4,41.9c19.6,0,31-14.3,33.9-33.6l-1.4-0.5c-5,10.3-14,16.6-24.2,15.8C400.2,99.7,389.5,85.5,390.5,68.4
	 M497,99.9c-1.6,3.9-5.1,6-9.6,6c-4.6,0-8.8-3.1-11.8-8.9c-3.2-6.1-4.9-14.8-4.9-25.1c0-21.4,6.7-35.2,17-35.2
	c4.3,0,7.7,2.1,9.3,5.9V99.9z M530.2,115.2c-6.1-1.4-9.2-3.6-9.2-11.4V0l-37.1,10.9v1.3l0.2,0c5.1-0.4,8.6,0.3,10.6,2.2
	c1.6,1.5,2.3,3.7,2.3,6.9v14.2c-3.7-2.3-8-3.5-13.3-3.5c-10.7,0-20.5,4.5-27.6,12.7c-7.4,8.5-11.3,20.2-11.3,33.8
	c0,24.2,11.9,40.4,29.6,40.4c10.4,0,18.7-5.7,22.5-15.3v12.9h33.3v-1.3L530.2,115.2z M562,14.1c0-7.6-5.7-13.2-13.2-13.2
	c-7.5,0-13.4,5.8-13.4,13.2s5.9,13.2,13.4,13.2C556.3,27.4,562,21.7,562,14.1 M570.8,115.2c-6.1-1.4-9.2-3.6-9.2-11.4h0V32.3
	l-33.3,9.6v1.3l0.2,0c7.2,0.6,9.2,3.1,9.2,11.6v61.8H571v-1.3L570.8,115.2z M656.2,115.2c-6.1-1.4-9.2-3.6-9.2-11.4V32.3l-31.7,9.3
	v1.3l0.2,0c5.9,0.6,7.6,3.2,7.6,11.7v45.2c-2,3.9-5.7,6.2-10.1,6.4c-7.2,0-11.2-4.9-11.2-13.8V32.3l-33.3,9.6v1.3l0.2,0
	c7.2,0.6,9.2,3.1,9.2,11.6V93c0,2.7,0.2,5.3,0.7,8l0.6,2.6c2.8,10.1,10.2,15.4,21.8,15.4c9.8,0,18.4-6.1,22.2-15.6v13.2h33.3v-1.3
	L656.2,115.2z M785.7,116.5v-1.3l-0.2,0c-6.6-1.5-9.2-4.4-9.2-10.3V56.2c0-15.2-8.5-24.2-22.8-24.2c-10.4,0-19.2,6-22.5,15.4
	c-2.7-9.9-10.4-15.4-21.8-15.4c-10,0-17.9,5.3-21.2,14.2v-14l-33.3,9.2v1.3l0.2,0c7.1,0.6,9.2,3.2,9.2,11.4v62.4h31.1v-1.3l-0.2,0
	c-5.3-1.2-7-3.5-7-9.3V50.1c1.4-3.3,4.2-7.1,9.8-7.1c6.9,0,10.4,4.8,10.4,14.3v59.3h31.1v-1.3l-0.2,0c-5.3-1.2-7-3.5-7-9.3V56.2
	c0-1.9-0.1-3.7-0.4-5.5c1.5-3.6,4.5-7.8,10.3-7.8c7,0,10.4,4.7,10.4,14.3v59.3H785.7z"/>
</svg>
